<svg width="20" height="20" viewBox="0 0 20 20" fill="none" xmlns="http://www.w3.org/2000/svg">
<path fill-rule="evenodd" clip-rule="evenodd" d="M13.554 1.35C13.554 2.225 13.234 3.042 12.597 3.799C11.828 4.698 10.898 5.217 9.889 5.135C9.876 5.03 9.869 4.92 9.869 4.804C9.869 3.964 10.235 3.064 10.884 2.329C11.208 1.957 11.621 1.648 12.121 1.401C12.62 1.158 13.092 1.023 13.536 1C13.549 1.117 13.554 1.234 13.554 1.35M16.93 14.637C16.666 15.248 16.353 15.81 15.99 16.328C15.495 17.033 15.09 17.521 14.778 17.792C14.294 18.238 13.776 18.466 13.221 18.478C12.822 18.478 12.341 18.365 11.782 18.135C11.221 17.906 10.704 17.792 10.233 17.792C9.738 17.792 9.207 17.906 8.64 18.135C8.072 18.365 7.614 18.485 7.264 18.497C6.731 18.519 6.2 18.285 5.671 17.792C5.333 17.498 4.91 16.992 4.404 16.276C3.86 15.512 3.413 14.624 3.063 13.614C2.688 12.522 2.5 11.464 2.5 10.44C2.5 9.268 2.754 8.256 3.261 7.409C3.66 6.728 4.191 6.191 4.855 5.797C5.519 5.403 6.237 5.202 7.01 5.189C7.432 5.189 7.987 5.32 8.676 5.577C9.363 5.835 9.804 5.965 9.998 5.965C10.142 5.965 10.633 5.812 11.464 5.508C12.249 5.225 12.912 5.108 13.456 5.154C14.928 5.273 16.034 5.853 16.769 6.898C15.453 7.696 14.802 8.814 14.815 10.247C14.826 11.364 15.231 12.293 16.028 13.03C16.388 13.373 16.791 13.638 17.24 13.826C17.142 14.107 17.039 14.377 16.93 14.637" fill="#ADB5BD"/>
</svg>
