<svg width="20" height="20" viewBox="0 0 20 20" fill="none" xmlns="http://www.w3.org/2000/svg">
<path fill-rule="evenodd" clip-rule="evenodd" d="M17.3126 13.9607C17.3126 15.8089 15.8089 17.3123 13.9607 17.3123H5.93973C4.09176 17.3126 2.58824 15.8089 2.58824 13.9607V5.93994C2.58824 4.09187 4.09176 2.58824 5.93973 2.58824H13.9606C15.8088 2.58824 17.3123 4.09187 17.3123 5.93994V13.9607H17.3126ZM13.9606 1H5.93973C3.21601 1 1 3.21612 1 5.93994V13.9607C1 16.6847 3.21601 18.9006 5.93973 18.9006H13.9606C16.6846 18.9006 18.9006 16.6846 18.9006 13.9607V5.93994C18.9008 3.21612 16.6846 1 13.9606 1V1Z" fill="#ADB5BD"/>
<path fill-rule="evenodd" clip-rule="evenodd" d="M10.1126 13.1366C8.44501 13.1366 7.08824 11.78 7.08824 10.1124C7.08824 8.4448 8.44491 7.08813 10.1126 7.08813C11.7802 7.08813 13.1369 8.4448 13.1369 10.1124C13.1369 11.78 11.7802 13.1366 10.1126 13.1366M10.1126 5.5C7.56915 5.5 5.5 7.56915 5.5 10.1126C5.5 12.6558 7.56915 14.7249 10.1126 14.7249C12.656 14.7249 14.7251 12.6558 14.7251 10.1126C14.7251 7.56915 12.656 5.5 10.1126 5.5" fill="#ADB5BD"/>
<path fill-rule="evenodd" clip-rule="evenodd" d="M14.7044 4.375C14.4417 4.375 14.1836 4.48136 13.998 4.66773C13.8116 4.85318 13.7044 5.11136 13.7044 5.375C13.7044 5.63782 13.8117 5.89591 13.998 6.08227C14.1836 6.26773 14.4417 6.375 14.7044 6.375C14.968 6.375 15.2253 6.26773 15.4117 6.08227C15.598 5.89591 15.7044 5.63773 15.7044 5.375C15.7044 5.11136 15.598 4.85318 15.4117 4.66773C15.2262 4.48136 14.968 4.375 14.7044 4.375" fill="#ADB5BD"/>
</svg>
