<svg width="12" height="13" viewBox="0 0 12 13" fill="none" xmlns="http://www.w3.org/2000/svg">
<path d="M5.63686 1.18921C5.77455 0.910237 6.17236 0.910237 6.31004 1.18921L7.81657 4.24178C7.87124 4.35256 7.97693 4.42935 8.09918 4.44711L11.4679 4.93661C11.7758 4.98135 11.8987 5.35969 11.6759 5.57684L9.23829 7.95293C9.14983 8.03916 9.10946 8.1634 9.13035 8.28516L9.70579 11.6403C9.75838 11.9469 9.43655 12.1807 9.16118 12.0359L6.14812 10.4519C6.03877 10.3944 5.90813 10.3944 5.79879 10.4519L2.78572 12.0359C2.51036 12.1807 2.18852 11.9469 2.24111 11.6403L2.81656 8.28516C2.83744 8.1634 2.79707 8.03916 2.70861 7.95293L0.270987 5.57684C0.0482126 5.35969 0.171142 4.98135 0.479009 4.93661L3.84772 4.44711C3.96997 4.42935 4.07566 4.35256 4.13033 4.24178L5.63686 1.18921Z" fill="#FFBF00"/>
</svg>
