<svg xmlns="http://www.w3.org/2000/svg" width="20" height="20" viewBox="0 0 20 20">
  <g fill="none" fill-rule="evenodd">
    <rect width="20" height="20"/>
    <g stroke="#FFF" stroke-width="1.5" transform="translate(2 2)">
      <path d="M6.66666667,0.75 C5.0321875,0.75 3.55297578,1.41185105 2.48241342,2.48241342 C1.41185105,3.55297578 0.75,5.0321875 0.75,6.66666667 C0.75,8.30114583 1.41185105,9.78035755 2.48241342,10.8509199 C3.55297578,11.9214823 5.0321875,12.5833333 6.66666667,12.5833333 C8.30114583,12.5833333 9.78035755,11.9214823 10.8509199,10.8509199 C11.9214823,9.78035755 12.5833333,8.30114583 12.5833333,6.66666667 C12.5833333,5.0321875 11.9214823,3.55297578 10.8509199,2.48241342 C9.78035755,1.41185105 8.30114583,0.75 6.66666667,0.75 Z"/>
      <line x1="11.111" x2="15.556" y1="11.111" y2="15.556" stroke-linecap="round"/>
    </g>
  </g>
</svg>
