<svg width="40" height="40" viewBox="0 0 40 40" fill="none" xmlns="http://www.w3.org/2000/svg">
<circle r="16" transform="matrix(-1 0 0 1 20 20)" fill="white"/>
<path d="M20.575 25.3999L25.175 20.7999C25.2917 20.6832 25.375 20.5582 25.425 20.4249C25.475 20.2916 25.5 20.1499 25.5 19.9999C25.5 19.8499 25.475 19.7082 25.425 19.5749C25.375 19.4416 25.2917 19.3166 25.175 19.1999L20.575 14.5999C20.3583 14.3832 20.0917 14.2749 19.775 14.2749C19.4583 14.2749 19.1917 14.3832 18.975 14.5999C18.7583 14.8166 18.65 15.0832 18.65 15.3999C18.65 15.7166 18.7583 15.9832 18.975 16.1999L22.775 19.9999L18.975 23.7999C18.7583 24.0166 18.65 24.2832 18.65 24.5999C18.65 24.9166 18.7583 25.1832 18.975 25.3999C19.1917 25.6166 19.4583 25.7249 19.775 25.7249C20.0917 25.7249 20.3583 25.6166 20.575 25.3999Z" fill="#343A40"/>
<path d="M18.675 27.2999L25.175 20.7999C25.2917 20.6832 25.375 20.5582 25.425 20.4249C25.475 20.2916 25.5 20.1499 25.5 19.9999C25.5 19.8499 25.475 19.7082 25.425 19.5749C25.375 19.4416 25.2917 19.3166 25.175 19.1999L18.675 12.6999C18.4583 12.4999 18.1957 12.3956 17.887 12.3869C17.579 12.3789 17.3083 12.4832 17.075 12.6999C16.8417 12.9166 16.7207 13.1832 16.712 13.4999C16.704 13.8166 16.8167 14.0832 17.05 14.2999L22.7736 19.9999L17.05 25.6999C16.8333 25.8999 16.7207 26.1626 16.712 26.4879C16.704 26.8126 16.8167 27.0832 17.05 27.2999C17.2667 27.5166 17.5333 27.6249 17.85 27.6249C18.1667 27.6249 18.4417 27.5166 18.675 27.2999Z" fill="#343A40"/>
</svg>
