<?xml version="1.0" encoding="UTF-8"?>
<svg width="16px" height="16px" viewBox="0 0 16 16" version="1.1" xmlns="http://www.w3.org/2000/svg" xmlns:xlink="http://www.w3.org/1999/xlink">
    <!-- Generator: sketchtool 63.1 (101010) - https://sketch.com -->
    <title>1124FBA3-CE97-4E72-9308-B0AEC5412FF6</title>
    <desc>Created with sketchtool.</desc>
    <g id="로그인&amp;회원가입" stroke="none" stroke-width="1" fill="none" fill-rule="evenodd">
        <g id="375_로그인&amp;회원가입" transform="translate(-262.000000, -403.000000)">
            <g id="Group-4" transform="translate(262.000000, 403.000000)">
                <g id="SNS/email/Filled/XS/gray-500">
                    <circle id="Oval" fill="#ADB5BD" cx="8" cy="8" r="8"></circle>
                    <path d="M8,9 L4,5.44916396 C4.06813684,5.18234585 4.27416337,5.00004404 4.50761807,5 L11.492398,5 C11.725831,5.00004687 11.931843,5.18231518 12,5.44909879 L8,9 Z M12,7 L8.21202222,10.4766738 C8.08614234,10.5922129 7.91385766,10.5922129 7.78797778,10.4766738 L4,7 L4,10.3480924 C4,10.7081308 4.23624104,11 4.52765867,11 L11.4723413,11 C11.6122853,11 11.7464975,10.9313164 11.8454527,10.8090596 C11.9444079,10.6868028 12,10.5209871 12,10.3480902 L12,7 Z" id="Shape" fill="#FFFFFF" fill-rule="nonzero"></path>
                </g>
            </g>
        </g>
    </g>
</svg>