<?xml version="1.0" encoding="UTF-8"?>
<svg width="16px" height="16px" viewBox="0 0 16 16" version="1.1" xmlns="http://www.w3.org/2000/svg" xmlns:xlink="http://www.w3.org/1999/xlink">
    <!-- Generator: sketchtool 63.1 (101010) - https://sketch.com -->
    <title>901C90CB-B9B5-42ED-A1E9-F9A66FFF03AA</title>
    <desc>Created with sketchtool.</desc>
    <g id="로그인&amp;회원가입" stroke="none" stroke-width="1" fill="none" fill-rule="evenodd">
        <g id="1440-로그인&amp;회원가입-케이스" transform="translate(-674.000000, -424.000000)" fill="#4267B2">
            <g id="Group-3" transform="translate(674.000000, 424.000000)">
                <g id="SNS/Facebook/Filled/XS/Facebook-blue">
                    <path d="M9.87689726,15.7928901 C13.390283,14.9516209 16,11.7844897 16,8.01008057 C16,3.58440567 12.4170544,0 8,0 C3.58355579,0 0,3.58440567 0,8.01008057 C0,12.2518615 3.2967737,15.7262973 7.46670734,16 L7.46670734,10.4996754 L5.49706353,10.4996754 L5.49706353,8.17992287 L7.48013119,8.17992287 L7.48013119,8.00641491 C7.48013119,7.53904311 7.47036839,7.07533697 7.48013119,6.60796518 C7.48989398,6.31104662 7.50331782,6.01046241 7.55335215,5.71720952 C7.6772176,5.00973691 8.00366105,4.41223414 8.59369995,3.98457368 C9.11051789,3.6143419 9.69994661,3.46404979 10.326596,3.45060903 C10.7366334,3.44083394 11.1436199,3.46099507 11.5536572,3.47749055 C11.7769812,3.49093131 11.9996949,3.52086754 12.2102052,3.54102868 L12.2102052,5.61701478 L12.0466784,5.61701478 C11.647014,5.61701478 11.2497903,5.60723968 10.8501258,5.62006949 C10.3034094,5.64023063 9.9000839,5.84734049 9.87994814,6.53159724 C9.86652429,7.02890527 9.86042255,8.17992287 9.86042255,8.17992287 L11.7037602,8.17992287 L12.146747,8.17992287 C12.0436275,8.97414945 11.9435588,9.7384398 11.8434902,10.5063958 L9.87689726,10.5063958 L9.87689726,15.7928901" id="Fill-1"></path>
                </g>
            </g>
        </g>
    </g>
</svg>