<svg width="20" height="20" viewBox="0 0 20 20" fill="none" xmlns="http://www.w3.org/2000/svg">
<path fill-rule="evenodd" clip-rule="evenodd" d="M8 13V6.99998L13.196 10L8 13ZM19.5822 5.1861C19.352 4.32575 18.6744 3.64798 17.8139 3.41799C16.2542 3 9.99992 3 9.99992 3C9.99992 3 3.74581 3 2.18611 3.41799C1.3256 3.64798 0.647981 4.32575 0.417994 5.1861C0 6.74579 0 10 0 10C0 10 0 13.2542 0.417994 14.8139C0.647981 15.6742 1.3256 16.352 2.18611 16.582C3.74581 17 9.99992 17 9.99992 17C9.99992 17 16.2542 17 17.8139 16.582C18.6744 16.352 19.352 15.6742 19.5822 14.8139C20 13.2542 20 10 20 10C20 10 20 6.74579 19.5822 5.1861V5.1861Z" fill="#ADB5BD"/>
</svg>
