<svg width="40" height="40" viewBox="0 0 40 40" fill="none" xmlns="http://www.w3.org/2000/svg">
<circle cx="20" cy="20" r="16" fill="white"/>
<path d="M19.425 25.3999L14.825 20.7999C14.7083 20.6832 14.625 20.5582 14.575 20.4249C14.525 20.2916 14.5 20.1499 14.5 19.9999C14.5 19.8499 14.525 19.7082 14.575 19.5749C14.625 19.4416 14.7083 19.3166 14.825 19.1999L19.425 14.5999C19.6417 14.3832 19.9083 14.2749 20.225 14.2749C20.5417 14.2749 20.8083 14.3832 21.025 14.5999C21.2417 14.8166 21.35 15.0832 21.35 15.3999C21.35 15.7166 21.2417 15.9832 21.025 16.1999L17.225 19.9999L21.025 23.7999C21.2417 24.0166 21.35 24.2832 21.35 24.5999C21.35 24.9166 21.2417 25.1832 21.025 25.3999C20.8083 25.6166 20.5417 25.7249 20.225 25.7249C19.9083 25.7249 19.6417 25.6166 19.425 25.3999Z" fill="#343A40"/>
<path d="M21.325 27.2999L14.825 20.7999C14.7083 20.6832 14.625 20.5582 14.575 20.4249C14.525 20.2916 14.5 20.1499 14.5 19.9999C14.5 19.8499 14.525 19.7082 14.575 19.5749C14.625 19.4416 14.7083 19.3166 14.825 19.1999L21.325 12.6999C21.5417 12.4999 21.8043 12.3956 22.113 12.3869C22.421 12.3789 22.6917 12.4832 22.925 12.6999C23.1583 12.9166 23.2793 13.1832 23.288 13.4999C23.296 13.8166 23.1833 14.0832 22.95 14.2999L17.2264 19.9999L22.95 25.6999C23.1667 25.8999 23.2793 26.1626 23.288 26.4879C23.296 26.8126 23.1833 27.0832 22.95 27.2999C22.7333 27.5166 22.4667 27.6249 22.15 27.6249C21.8333 27.6249 21.5583 27.5166 21.325 27.2999Z" fill="#343A40"/>
</svg>
