<?xml version="1.0" encoding="UTF-8"?>
<svg width="16px" height="16px" viewBox="0 0 16 16" version="1.1" xmlns="http://www.w3.org/2000/svg" xmlns:xlink="http://www.w3.org/1999/xlink">
    <!-- Generator: sketchtool 63.1 (101010) - https://sketch.com -->
    <title>2F7675F5-ED67-4765-9C55-7A08B9A0D82D</title>
    <desc>Created with sketchtool.</desc>
    <g id="로그인&amp;회원가입" stroke="none" stroke-width="1" fill="none" fill-rule="evenodd">
        <g id="1440-로그인&amp;회원가입-케이스" transform="translate(-788.000000, -424.000000)">
            <rect fill="#FFFFFF" x="0" y="0" width="1224" height="680"></rect>
            <path d="M1023,129.5 L597,129.5 C596.585786,129.5 596.210786,129.667893 595.93934,129.93934 C595.667893,130.210786 595.5,130.585786 595.5,131 L595.5,543 C595.5,543.414214 595.667893,543.789214 595.93934,544.06066 C596.210786,544.332107 596.585786,544.5 597,544.5 L1023,544.5 C1023.41421,544.5 1023.78921,544.332107 1024.06066,544.06066 C1024.33211,543.789214 1024.5,543.414214 1024.5,543 L1024.5,131 C1024.5,130.585786 1024.33211,130.210786 1024.06066,129.93934 C1023.78921,129.667893 1023.41421,129.5 1023,129.5 Z" id="Box" stroke="#E9ECEF" fill="#FFFFFF"></path>
            <g id="Group" transform="translate(788.000000, 424.000000)">
                <g id="SNS/naver/Filled/XS/gray-500">
                    <g id="SNS/naver/Filled/XS/naver_green">
                        <circle id="Oval" fill="#1EC800" cx="8" cy="8" r="8"></circle>
                        <polygon id="Fill-7" fill="#FFFFFF" points="9.27120419 4.33507853 9.27120419 8.03308901 6.73759162 4.33507853 4 4.33507853 4 11.6649215 6.72879581 11.6649215 6.72879581 7.96691099 9.26240838 11.6649215 12 11.6649215 12 4.33507853"></polygon>
                    </g>
                    <polygon id="Fill-7" fill="#FFFFFF" points="9.27120419 4.33507853 9.27120419 8.03308901 6.73759162 4.33507853 4 4.33507853 4 11.6649215 6.72879581 11.6649215 6.72879581 7.96691099 9.26240838 11.6649215 12 11.6649215 12 4.33507853"></polygon>
                </g>
            </g>
        </g>
    </g>
</svg>